# xmcd
#
# Track frame offsets: 
#        150
#        2659
#        23407
#        39871
#        58189
#        75651
#        95081
#        112759
#        133298
#        152674
#
# Disc length: 2278 seconds
#
# Revision: 0
# Processed by: cddbd v1.5.2PL0 Copyright (c) Steve Scherf et al.
# Submitted via: ExactAudioCopy v0.95b4
#
DISCID=6e08e40a
DTITLE=Kim - Kim Vol.1
DYEAR=2006
DGENRE=Pop
TTITLE0=Intro
TTITLE1=Niem Tin
TTITLE2=De Long Ta Hat
TTITLE3=Bao Gio Em Biet
TTITLE4=Hay La Chinh Minh
TTITLE5=Ao Xanh
TTITLE6=Hoai Bao
TTITLE7=Kim- The La Qua Du
TTITLE8=Vi Toi La Co Be
TTITLE9=Tron Doi Cho Con
EXTD=
EXTT0=
EXTT1=
EXTT2=
EXTT3=
EXTT4=
EXTT5=
EXTT6=
EXTT7=
EXTT8=
EXTT9=
PLAYORDER=
